<?xml version="1.0" standalone="no"?>
<!DOCTYPE svg PUBLIC "-//W3C//DTD SVG 1.1//EN" "http://www.w3.org/Graphics/SVG/1.1/DTD/svg11.dtd" >
<svg xmlns="http://www.w3.org/2000/svg">
<metadata>Generated by IcoMoon</metadata>
<defs>
<font id="icomoon" horiz-adv-x="1024">
<font-face units-per-em="1024" ascent="960" descent="-64" />
<missing-glyph horiz-adv-x="1024" />
<glyph unicode="&#x20;" horiz-adv-x="512" d="" />
<glyph unicode="&#xe900;" glyph-name="access-control" horiz-adv-x="1718" d="M860.42 196.339c-139.715 0-253.397 113.681-253.397 253.397s113.681 253.397 253.397 253.397c139.715 0 253.397-113.681 253.397-253.397 0.434-139.715-113.681-253.397-253.397-253.397zM860.42 616.786c-91.986 0-166.617-74.631-166.617-166.617s74.631-166.617 166.617-166.617c91.986 0 166.617 74.631 166.617 166.617s-74.631 166.617-166.617 166.617zM860.42-60.095c-157.939 0-311.539 42.956-456.895 127.132-144.054 83.742-272.922 203.932-382.264 357.532l-17.79 25.166 17.79 25.166c109.776 154.034 238.21 274.224 382.264 357.966 145.356 84.176 298.956 127.132 456.895 127.132s311.539-42.956 456.895-127.132c144.054-83.742 272.922-203.932 382.264-357.532l17.79-25.166-17.79-25.166c-109.776-153.6-238.644-274.224-382.264-357.532-145.356-85.044-298.956-127.566-456.895-127.566zM110.21 449.736c203.932-273.356 469.478-423.485 750.21-423.485s546.278 150.129 750.21 423.485c-203.932 273.356-469.478 423.485-750.21 423.485s-546.278-150.129-750.21-423.485z" />
<glyph unicode="&#xe901;" glyph-name="alerts" d="M510.131-60.263c-281.413 0-510.131 228.718-510.131 510.131s228.718 510.131 510.131 510.131c281.413 0 510.131-228.718 510.131-510.131s-228.718-510.131-510.131-510.131zM510.131 885.255c-239.93 0-435.387-195.457-435.387-435.387 0-240.304 195.457-435.387 435.387-435.387s435.387 195.457 435.387 435.387c0 239.93-195.083 435.387-435.387 435.387zM472.759 815.369h74.745v-500.415h-74.745v500.415zM472.759 230.493h74.745v-146.126h-74.745v146.126z" />
<glyph unicode="&#xe902;" glyph-name="Application-API" horiz-adv-x="1040" d="M204.359 169.705l520.014 520.014 43.883-43.883-520.014-520.014-43.883 43.883zM-0.004 558.183l636.872 367.709 31.030-53.744-636.872-367.709-31.030 53.744zM768.31 420.073c-148.945 0-269.964 121.018-269.964 269.964s121.018 269.964 269.964 269.964 269.964-121.018 269.964-269.964-121.018-269.964-269.964-269.964zM768.31 897.939c-114.502 0-207.903-93.091-207.903-207.903s93.091-207.903 207.903-207.903 207.903 93.091 207.903 207.903-93.091 207.903-207.903 207.903zM589.734-31.683l367.709 636.872 53.744-31.030-367.709-636.872-53.744 31.030z" />
<glyph unicode="&#xe903;" glyph-name="automation" horiz-adv-x="722" d="M180.114 135.619c-111.238 64-180.114 183.771-180.114 312.076 0 198.4 161.524 359.924 360.229 359.924v-60.952c-165.181 0-299.276-134.095-299.276-298.971 0-106.667 57.295-205.714 149.638-259.048l-30.476-53.029zM360.229 87.467v60.952c164.876 0 299.276 134.095 299.276 299.276 0 106.667-57.295 205.714-149.638 259.048l30.476 52.724c111.238-64 180.114-183.771 180.114-311.771 0-198.705-161.829-360.229-360.229-360.229zM302.629 597.333l-42.971 42.971 136.838 136.838-136.838 136.838 42.971 43.276 179.81-180.114zM417.829-62.171l-179.81 180.114 179.81 179.81 42.971-42.971-136.838-136.838 136.838-136.838z" />
<glyph unicode="&#xe904;" glyph-name="billing" horiz-adv-x="386" d="M192.695 415.612c-106.326 0-192.695 86.369-192.695 192.368 0 106.326 86.369 192.695 192.695 192.695s192.695-86.369 192.695-192.695h-65.431c0 70.012-56.925 127.264-127.264 127.264s-127.264-56.925-127.264-127.264c0-70.012 56.925-127.264 127.264-127.264v-65.104zM192.695 95.652c-106.326 0-192.695 86.369-192.695 192.695h65.431c0-70.012 56.925-127.264 127.264-127.264 70.012 0 127.264 56.925 127.264 127.264s-56.925 127.264-127.264 127.264v65.431c106.326 0 192.695-86.369 192.695-192.695s-86.369-192.695-192.695-192.695zM159.98 960h65.431v-177.646h-65.431v177.646zM159.98 113.646h65.431v-177.646h-65.431v177.646z" />
<glyph unicode="&#xe905;" glyph-name="client-libraries" horiz-adv-x="1532" d="M1530.359-61.831h-1529.492v1020.095h1529.058v-1020.095zM87.647 24.949h1355.498v846.536h-1355.498v-846.536zM722.007 920.949h86.78v-945.464h-86.78v945.464zM935.051 237.125h424.786v-86.78h-424.786v86.78zM935.051 491.39h424.786v-86.78h-424.786v86.78zM935.051 746.088h424.786v-86.78h-424.786v86.78z" />
<glyph unicode="&#xe906;" glyph-name="collections" horiz-adv-x="1031" d="M221.991 445.758l-221.991 128.187v256.374l221.991 127.813 221.991-128.187v-256.374l-221.991-127.813zM74.745 616.923l147.247-84.835 147.247 84.835v170.044l-147.247 85.209-147.247-85.209v-170.044zM806.867 445.758l-221.991 128.187v256.374l221.991 128.187 221.991-128.187v-256.374l-221.991-128.187zM659.62 616.923l147.247-84.835 147.247 84.835v170.044l-147.247 84.835-147.247-84.835v-170.044zM514.242-61.010l-221.991 128.187v256.374l221.991 128.187 221.991-128.187v-256.374l-221.991-128.187zM366.996 110.155l147.247-85.209 147.247 85.209v170.044l-147.247 84.835-147.247-84.835v-170.044z" />
<glyph unicode="&#xe907;" glyph-name="contexts" horiz-adv-x="1248" d="M546.8 644.8h-546.8v315.2h546.8v-315.2zM80 724.8h386.8v155.2h-386.8v-155.2zM546.8-60.4h-546.8v550h546.8v-550zM80 19.6h386.8v390h-386.8v-390zM1248-60.4h-546.8v315.2h546.8v-315.2zM781.2 19.6h386.8v155.2h-386.8v-155.2zM1248 410h-546.8v550h546.8v-550zM781.2 490h386.8v390h-386.8v-390z" />
<glyph unicode="&#xe908;" glyph-name="dashboards" horiz-adv-x="1360" d="M0 447.564h87.149v-511.129h-87.149v511.129zM254.039 625.348h87.149v-688.912h-87.149v688.912zM508.078 960h87.149v-1022.693h-87.149v1022.693zM762.989 455.843h87.149v-519.843h-87.149v519.843zM1017.028 873.723h87.149v-937.287h-87.149v937.287zM1271.067 703.346h87.149v-765.603h-87.149v765.603z" />
<glyph unicode="&#xe909;" glyph-name="diagnostics" d="M1022.795-62.795h-1022.795v1022.795h1022.795v-1022.795zM80.314 17.518h862.168v862.168h-862.168v-862.168zM405.584 180.154l-240.138 240.138 56.621 56.621 183.517-183.115 418.836 418.836 57.023-56.621z" />
<glyph unicode="&#xe90a;" glyph-name="entity-resources" horiz-adv-x="886" d="M441.366-61.010l-441.366 254.879v509.758l441.366 254.505 441.366-254.879v-509.384l-441.366-254.879zM74.745 236.847l366.622-211.527 366.622 211.527v423.428l-366.622 211.527-366.622-211.527v-423.428zM18.738 649.678l37.372 64.729 403.907-233.203-37.372-64.729-403.907 233.203zM422.503 480.974l403.907 233.203 37.372-64.729-403.907-233.203-37.372 64.729zM403.994 477.524h74.745v-486.587h-74.745v486.587z" />
<glyph unicode="&#xe90b;" glyph-name="extremum-cli" horiz-adv-x="1362" d="M1360.271-60.095h-1359.403v1020.095h1359.403v-1020.095zM87.647 26.685h1185.844v846.536h-1185.844v-846.536zM424.353 193.736l-61.18 61.18 194.82 194.82-194.82 194.82 61.18 61.614 256.434-256.434zM678.183 280.949h341.912v-86.78h-341.912v86.78z" />
<glyph unicode="&#xe90c;" glyph-name="extremum-cloud" horiz-adv-x="1763" d="M328.042 27.526h1099.214v-90.619h-1099.214v90.619zM333.933-63.094c-183.958 0-333.933 149.975-333.933 333.933s149.975 333.933 333.933 333.933c150.881 0 283.639-101.947 322.605-247.844l-87.448-23.561c-28.545 106.478-125.055 180.333-235.158 180.333-134.117 0-243.313-109.196-243.313-243.313s109.196-243.313 243.313-243.313v-90.166zM1424.085-63.094v90.619c134.117 0 243.313 109.196 243.313 243.313s-109.196 243.313-243.313 243.313c-26.28 0-52.559-4.078-77.933-12.687l-28.998 86.088c34.435 11.781 70.23 17.671 106.931 17.671 184.411 0 333.933-149.975 333.933-333.933s-149.522-334.386-333.933-334.386zM1313.982 223.264l-78.386 45.31c35.342 60.715 53.465 130.039 53.465 200.269 0 221.112-179.88 400.538-400.538 400.538-203.894 0-374.712-152.694-397.819-355.228l-90.166 10.421c28.545 248.297 238.329 435.427 488.439 435.427 270.952 0 491.158-220.205 491.158-491.158 0-86.088-23.108-171.271-66.152-245.579z" />
<glyph unicode="&#xe90d;" glyph-name="extremum-enterprise" d="M511.418 218.182c-126.836 0-230.109 103.273-230.109 230.109s103.273 230.109 230.109 230.109c126.836 0 230.109-103.273 230.109-230.109 0.291-126.836-102.982-230.109-230.109-230.109zM511.418 620.509c-94.836 0-171.927-77.091-171.927-171.927s77.091-171.927 171.927-171.927c94.836 0 171.927 77.091 171.927 171.927 0.291 94.836-77.091 171.927-171.927 171.927zM482.327 960h58.182v-339.491h-58.182v339.491zM482.327 276.945h58.182v-339.782h-58.182v339.782zM612.759 590.675l240.054 240.054 41.14-41.14-240.054-240.054-41.14 41.14zM129.323 107.295l240.26 240.26 41.14-41.14-240.26-240.26-41.14 41.14zM683.636 477.673h339.491v-58.182h-339.491v58.182zM0 477.673h339.782v-58.182h-339.782v58.182zM612.636 306.152l41.14 41.14 240.054-240.054-41.14-41.14-240.054 240.054zM129.253 789.58l41.14 41.14 240.26-240.26-41.14-41.14-240.26 240.26z" />
<glyph unicode="&#xe90e;" glyph-name="extremum-express" horiz-adv-x="668" d="M72.496-63.698l-49.237 33.831 216.581 440.411h-212.654l-26.28 45.31 282.431 488.741 26.28 15.103 332.876 0.302 22.353-50.445-256.755-283.337h234.402l22.051-50.747-592.047-639.169zM79.443 470.957h208.727l27.186-43.497-146.804-298.44 404.767 436.786h-233.194l-22.353 50.445 256.755 283.337-247.693-0.302-247.391-428.328z" />
<glyph unicode="&#xe90f;" glyph-name="extremum-pro" horiz-adv-x="1071" d="M239.784-61.449l-56.12 40.814 114.061 348.379-296.996 215.004 21.136 65.959 366.599-0.729 112.604 348.743h69.238l112.604-348.743 366.599 0.729 21.5-65.959-296.996-215.004 114.061-348.379-56.12-40.814-296.268 216.097-295.903-216.097zM134.833 535.459l227.029-164.35 13.119-40.814-87.095-266.386 226.3 165.079h43.001l226.3-165.079-87.095 266.386 13.119 40.814 227.029 164.35-280.233-0.364-34.619 25.144-86.001 266.386-86.001-266.75-34.619-25.144-280.233 0.729z" />
<glyph unicode="&#xe910;" glyph-name="extremum-studio" horiz-adv-x="1697" d="M0 23.214h1692.637v-86.78h-1692.637v86.78zM1526.020 109.559h-1359.403v850.441h1359.403v-850.441zM253.397 196.339h1185.844v676.881h-1185.844v-676.881z" />
<glyph unicode="&#xe911;" glyph-name="first-application" horiz-adv-x="1362" d="M1359.403-60.095h-1359.403v1020.095h1359.403v-1020.095zM86.78 26.685h1185.844v846.536h-1185.844v-846.536zM853.044 193.736l-61.18 61.18 194.82 194.82-194.82 194.82 61.18 61.614 256.434-256.434zM506.359 193.736l-256 256 256 256.434 61.18-61.614-194.82-194.82 194.82-194.82z" />
<glyph unicode="&#xe912;" glyph-name="function-control" horiz-adv-x="916" d="M189.424-62.691c-104.363 0-189.424 85.061-189.424 189.424h65.431c0-68.376 55.617-123.992 123.992-123.992 55.944 0 105.344 37.95 119.739 91.931l194.658 726.288c21.919 81.789 97.165 139.042 182.553 139.042 104.363 0 189.424-85.061 189.424-189.424h-65.431c0 68.376-55.617 123.992-123.992 123.992-56.925 0-105.017-36.314-119.412-90.622l-194.658-726.288c-21.919-82.443-97.165-140.35-182.881-140.35zM252.565 481.37h385.39v-65.431h-385.39v65.431zM574.35 266.071l46.266 46.266 292.867-292.867-46.266-46.266-292.867 292.867zM574.351 19.476l292.867 292.867 46.266-46.266-292.867-292.867-46.266 46.266z" />
<glyph unicode="&#xe913;" glyph-name="logs" horiz-adv-x="770" d="M639.185 65.794h-639.185v894.206h461.778l177.406-174.471v-719.735zM65.223 131.017h508.739v627.118l-138.925 136.642h-369.814v-763.761zM130.772 704.326h377.967v-65.223h-377.967v65.223zM130.772 577.141h316.657v-65.223h-316.657v65.223zM766.696-63.348h-639.185v161.753h65.223v-96.53h508.739v608.204h-94.899v65.223h160.122z" />
<glyph unicode="&#xe914;" glyph-name="models" horiz-adv-x="1362" d="M1359.403-61.831h-1359.403v1020.095h1359.403v-1020.095zM86.78 24.949h1185.844v846.536h-1185.844v-846.536zM85.912 491.39h1188.014v-86.78h-1188.014v86.78zM424.353 920.949h86.78v-945.464h-86.78v945.464zM848.705 920.949h86.78v-945.464h-86.78v945.464z" />
<glyph unicode="&#xe915;" glyph-name="monitoring-subsystem" horiz-adv-x="2099" d="M1381.783 320.854l418.441 418.441 80.008-80.008-418.441-418.441-80.008 80.008zM839.035 581.713l80.008 80.008 341.233-341.233-80.008-80.008-341.233 341.233zM219.791 241.058l419.641 419.641 80.008-80.008-419.641-419.641-80.008 80.008zM780.164 522.113c-109.755 0-199.143 89.388-199.143 199.143s89.388 199.143 199.143 199.143c109.755 0 199.143-89.388 199.143-199.143-0.566-109.755-89.388-199.143-199.143-199.143zM780.164 806.683c-47.523 0-85.993-38.471-85.993-85.993s38.471-85.993 85.993-85.993c47.523 0 85.993 38.471 85.993 85.993-0.566 47.523-39.036 85.993-85.993 85.993zM1321.017-18.74c-109.755 0-199.143 89.388-199.143 199.143s89.388 199.143 199.143 199.143c109.755 0 199.143-89.388 199.143-199.143 0-110.32-89.388-199.143-199.143-199.143zM1321.017 265.83c-47.523 0-85.993-38.471-85.993-85.993s38.471-85.993 85.993-85.993c47.523 0 85.993 38.471 85.993 85.993s-39.036 85.993-85.993 85.993zM1899.775 561.715c-109.755 0-199.143 89.388-199.143 199.143s89.388 199.143 199.143 199.143c109.755 0 199.143-89.388 199.143-199.143-0.566-109.755-89.954-199.143-199.143-199.143zM1899.775 846.851c-47.523 0-85.993-38.471-85.993-85.993s38.471-85.993 85.993-85.993c47.523 0 85.993 38.471 85.993 85.993-0.566 47.523-39.036 85.993-85.993 85.993zM199.143-58.908c-109.755 0-199.143 89.388-199.143 199.143s89.388 199.143 199.143 199.143c109.755 0 199.143-89.388 199.143-199.143s-89.388-199.143-199.143-199.143zM199.143 225.662c-47.523 0-85.993-38.471-85.993-85.993s38.471-85.993 85.993-85.993c47.523 0 85.993 38.471 85.993 85.993s-39.036 85.993-85.993 85.993z" />
<glyph unicode="&#xe916;" glyph-name="Platform-API" horiz-adv-x="1314" d="M1166.615 84.573h-1166.615v875.427h1166.615v-875.427zM74.473 159.046h1017.67v726.481h-1017.67v-726.481zM732.067 302.406l-52.503 52.503 167.191 167.191-167.191 167.191 52.503 52.876 220.067-220.067zM434.548 302.406l-219.695 219.695 219.695 220.067 52.503-52.876-167.191-167.191 167.191-167.191zM1312.582-60.276h-1166.615v179.479h74.473v-105.007h1017.67v726.481h-110.22v74.473h184.692z" />
<glyph unicode="&#xe917;" glyph-name="signal-management" horiz-adv-x="905" d="M226.358 409.889c-124.728 0-226.358 101.63-226.358 226.743 0 124.728 101.63 226.358 226.358 226.358v-76.992c-82.382 0-149.365-66.983-149.365-149.365s66.983-149.365 149.365-149.365v-77.377zM226.358 862.989h449.251v-76.992h-449.251v76.992zM675.994 409.889h-127.808v76.992h127.808v-76.992zM354.165 409.889h-127.808v76.992h127.808v-76.992zM675.994 33.78v76.992c82.382 0 149.365 66.983 149.365 149.365s-66.983 149.365-149.365 149.365v76.992c125.113 0 226.358-101.63 226.358-226.358s-101.63-226.358-226.358-226.358zM226.358 110.773h449.251v-76.992h-449.251v76.992zM766.845 688.986c-74.683 0-135.507 60.824-135.507 135.507s60.824 135.507 135.507 135.507c74.683 0 135.507-60.824 135.507-135.507s-60.824-135.507-135.507-135.507zM766.845 883.008c-32.337 0-58.514-26.177-58.514-58.514s26.177-58.514 58.514-58.514c32.337 0 58.514 26.177 58.514 58.514s-26.177 58.514-58.514 58.514zM135.507-63.23c-74.683 0-135.507 60.824-135.507 135.507s60.824 135.507 135.507 135.507c74.683 0 135.507-60.824 135.507-135.507s-60.824-135.507-135.507-135.507zM135.507 130.791c-32.337 0-58.514-26.177-58.514-58.514s26.177-58.514 58.514-58.514c32.337 0 58.514 26.177 58.514 58.514s-26.562 58.514-58.514 58.514zM450.021 312.878c-74.683 0-135.507 60.824-135.507 135.507s60.824 135.507 135.507 135.507c74.683 0 135.507-60.824 135.507-135.507s-60.824-135.507-135.507-135.507zM450.021 506.899c-32.337 0-58.514-26.177-58.514-58.514s26.177-58.514 58.514-58.514c32.337 0 58.514 26.177 58.514 58.514s-26.177 58.514-58.514 58.514z" />
<glyph unicode="&#xe918;" glyph-name="storage-management" horiz-adv-x="1536" d="M768.776 222.255l-765.285 366.933 765.285 367.321 765.285-367.321-765.285-366.933zM182.691 589.188l586.085-280.824 585.697 281.212-585.697 281.212-586.085-281.6zM768.776-61.673l-765.285 367.321 368.485 176.873 33.745-70.206-223.030-106.667 586.085-281.212 585.697 281.212-223.030 106.667 33.745 70.206 368.873-176.873z" />
<glyph unicode="&#xe919;" glyph-name="support" horiz-adv-x="1028" d="M971.636-64l-315.733 152.824c-61.673-29.479-129.552-44.994-198.206-44.994-252.121 0-457.697 205.576-457.697 458.085s205.576 458.085 458.085 458.085 458.085-205.576 458.085-458.085c0-60.897-12.412-122.57-36.461-178.812l144.679-336.679-52.752-50.424zM672.582 167.176l239.321-115.976-110.158 256.776 0.388 31.806c23.661 50.424 36.073 106.279 36.073 162.133 0 209.842-170.667 380.509-380.509 380.509-209.455 0-380.121-170.667-380.121-380.509s170.667-380.509 380.509-380.509c62.448 0 124.509 15.515 179.588 44.994l34.909 0.776zM268.412 540.703h77.964v-77.576h-77.964v77.576zM418.909 540.703h77.964v-77.576h-77.964v77.576zM569.794 540.703h77.964v-77.576h-77.964v77.576z" />
<glyph unicode="&#xe91a;" glyph-name="logs-2" horiz-adv-x="1133" d="M80.251-60.79v1019.827l513.605-82.498v-885.969l-513.605-51.361zM144.451 883.922v-874.092l385.204 38.52v773.618l-385.204 61.954zM1052.89-61.432l-513.605 56.818v876.018l513.605 88.276v-1021.111zM603.486 53.166l385.204-42.693v873.129l-385.204-66.127v-764.308zM0-4.614v916.464l134.179-24.717-11.556-62.917-58.423 10.593v-752.752l42.051 13.161 18.618-61.633zM1133.141-14.245l-124.87 38.199 18.618 61.633 42.051-13.161v752.752l-58.423-10.593-11.556 62.917 134.179 24.717zM205.704 623.084l5.596 63.957 256.786-22.469-5.596-63.957-256.786 22.469zM205.705 491.473l5.596 63.957 256.786-22.469-5.596-63.957-256.786 22.469zM205.706 359.861l5.596 63.957 256.786-22.469-5.596-63.957-256.786 22.469zM205.707 228.25l5.596 63.957 256.786-22.469-5.596-63.957-256.786 22.469zM664.743 664.534l256.786 22.479 5.599-63.957-256.786-22.479-5.599 63.957zM664.743 532.921l256.786 22.479 5.599-63.957-256.786-22.479-5.599 63.957zM664.743 401.308l256.786 22.479 5.599-63.957-256.786-22.479-5.599 63.957zM664.743 269.696l256.786 22.479 5.599-63.957-256.786-22.479-5.599 63.957z" />
<glyph unicode="&#xe91b;" glyph-name="licenses" horiz-adv-x="862" d="M754.526 40.619h-754.526v710.776l222.237 208.604h532.29v-919.381zM63.406 104.025h627.715v792.57h-443.839l-183.876-172.463v-620.107zM460.959 143.97l-117.934 108.424 43.116 46.603 69.429-63.723 132.201 155.661 48.188-41.214zM139.492 709.548h472.372v-63.406h-472.372v63.406zM139.492 585.907h472.372v-63.406h-472.372v63.406zM139.492 459.096h361.412v-63.406h-361.412v63.406zM862.316-64h-757.697v145.516h63.406v-82.11h630.885v786.229h-72.599v63.406h136.005z" />
<glyph unicode="&#xe91c;" glyph-name="extremum" horiz-adv-x="1301" d="M655.387 366.208c-40.565-9.27-77.746-20.426-110.727-33.15-15.184-5.853-29.361-11.926-42.437-18.168 47.868-10.963 98.784-20.213 152.17-27.523 95.090-13.018 233.012-23.819 332.922-18.672 61.318 3.156 115.486 13.802 155.891 29.378 34.11 13.15 55.205 25.614 55.205 34.265 0 8.648-21.095 21.109-55.205 34.258-127.483 49.142-348.045 31.565-487.819-0.389zM638.070 186.15c-83.687 11.646-161.937 27.847-232.745 47.834-1.893-5.387-2.869-10.777-2.869-16.154 0-40.271 54.346-81.359 142.204-115.232 102.403-39.473 245.256-63.89 404.287-63.89v-102.708c-171.15 0-327.224 27.178-441.199 71.116-128.51 49.544-208.002 123.698-208.002 210.714 0 16.398 2.824 32.339 8.266 47.743-4.105 1.524-8.182 3.062-12.215 4.616-182.757 70.453-295.797 173.499-295.797 292.425 0 118.929 113.040 221.97 295.797 292.426 168.217 64.849 399.228 104.96 653.15 104.96v-102.704c-241.806 0-459.594-37.353-616.239-97.741-142.103-54.782-230.001-124.758-230.001-196.941s87.895-142.16 230.001-196.939c12.485-4.816 25.364-9.48 38.612-13.995 34.742 29.568 81.024 55.502 136.429 76.864 44.272 17.063 94.901 31.602 150.295 42.998 156.953 32.281 379.4 45.543 522.071-9.463 74.762-28.821 121.008-74.346 121.008-129.74 0-55.397-46.246-100.927-121.008-129.747-50.825-19.591-117.030-32.883-190.031-36.55-105.864-5.316-251.448 6.124-352.013 20.108z" />
<glyph unicode="&#xe91d;" glyph-name="logs-3" horiz-adv-x="744" d="M1.571-59.602v851.239l551.264 166.793v-865.688l-551.264-152.344zM64.393 745.148v-722.14l425.62 117.477v733.134l-425.62-128.471zM742.871-64h-739.73v62.822h676.908v760.147h-158.626v62.822h221.448zM148.284 576.924l238.852 70.717 17.835-60.24-238.852-70.717-17.835 60.24zM148.202 442.157l238.852 70.717 17.835-60.24-238.852-70.717-17.835 60.24zM148.204 307.084l238.852 70.717 17.835-60.24-238.852-70.717-17.835 60.24z" />
<glyph unicode="&#xe91e;" glyph-name="question-gradient" d="M512-63.675c-282.494 0-512 229.506-512 511.675 0 282.494 229.506 512 512 512s512-229.506 512-512c-0.325-282.169-229.831-511.675-512-511.675zM512 894.984c-246.41 0-446.984-200.574-446.984-446.984s200.574-446.984 446.984-446.984c246.41 0 446.984 200.574 446.984 446.984-0.325 246.41-200.574 446.984-446.984 446.984zM512-63.675c-282.494 0-512 229.506-512 511.675 0 282.494 229.506 512 512 512s512-229.506 512-512c-0.325-282.169-229.831-511.675-512-511.675zM512 894.984c-246.41 0-446.984-200.574-446.984-446.984s200.574-446.984 446.984-446.984c246.41 0 446.984 200.574 446.984 446.984-0.325 246.41-200.574 446.984-446.984 446.984zM481.443 262.38h65.016v-132.307h-65.016v132.307zM546.458 323.495h-65.016v172.292h32.508c73.143 0 130.682 58.189 130.682 132.632 0 73.143-59.49 132.632-132.632 132.632s-132.632-59.49-132.632-132.632h-65.016c0 108.902 88.747 197.648 197.648 197.648s197.648-88.747 197.648-197.648c0-52.988-20.155-102.4-56.564-139.459-29.257-29.582-65.991-48.762-106.626-55.589v-109.877z" />
<glyph unicode="&#xe91f;" glyph-name="call-gradient" horiz-adv-x="1087" d="M784.551-60.865c-37.965 0-79.064 6.618-124.691 17.067-305.459 70.705-549.964 301.279-638.084 602.21-40.403 138.275-35.178 228.484 107.973 307.897l168.925 93.693 160.914-278.639-132.005-132.005c67.221-140.016 187.036-247.641 333.67-299.189l145.241 145.241 278.639-160.914-85.682-154.645c-58.166-104.838-126.781-140.713-214.901-140.713zM272.552 865.959l-109.018-60.256c-104.141-57.818-110.063-107.624-74.884-227.439 81.154-276.55 305.806-489.012 586.536-553.796 133.399-30.999 199.576-25.078 262.966 89.513l52.593 95.086-173.105 99.962-137.578-137.578-20.201 6.269c-182.509 57.121-330.536 190.52-406.465 365.714l-9.404 21.595 128.522 127.826-99.962 173.105z" />
<glyph unicode="&#xe920;" glyph-name="support-gradient" d="M979.796-62.728l-322.783 156.462c-62.33-30.529-131.339-46.43-200.666-46.43-251.548 0-456.348 204.8-456.348 456.348s204.8 456.348 456.348 456.348c251.548 0 456.348-204.8 456.348-456.348 0-62.012-13.039-124.343-37.525-180.949l147.558-344.089-42.932-41.342zM670.688 157.973l260.452-126.251-119.573 278.579 0.318 26.077c24.487 51.836 37.525 109.714 37.525 167.275-0.318 216.566-176.497 392.745-393.063 392.745s-392.745-176.179-392.745-392.745c0-216.566 176.179-392.745 392.745-392.745 64.557 0 128.477 16.219 185.401 46.43l28.939 0.636zM218.793 535.453h124.025v-63.602h-124.025v63.602zM591.503 535.453h124.025v-63.602h-124.025v63.602zM401.014 535.453h131.975v-63.602h-131.975v63.602z" />
</font>
</defs>
</svg>
