<svg width="204" height="160" viewBox="0 0 204 160" fill="none" xmlns="http://www.w3.org/2000/svg">
<path d="M48.0622 108.36C47.213 110.764 46.7725 113.251 46.7725 115.81C46.7725 129.388 59.1759 140.959 79.2289 148.69C97.0132 155.547 121.366 159.787 148.072 159.787V143.761C123.257 143.761 100.967 139.951 84.988 133.791C71.2789 128.505 62.799 122.094 62.799 115.81C62.799 114.971 62.9515 114.13 63.2463 113.29L78.3665 100.664C80.4063 99.6903 82.619 98.7428 84.988 97.8295C87.9621 96.682 91.1549 95.6163 94.542 94.642V78.0944C89.0346 79.5057 83.9044 81.1275 79.2289 82.9297C70.5833 86.2627 63.3615 90.3097 57.9406 94.9235L48.0622 108.36Z" fill="white"/>
<path d="M102.266 92.6569C97.8456 93.6672 93.683 94.8208 89.8213 96.1012V79.3828C93.8828 78.2048 98.1808 77.1462 102.68 76.2203C127.171 71.1835 161.881 69.1139 184.144 77.6969C195.809 82.1941 203.025 89.2982 203.025 97.9424C203.025 106.587 195.809 113.691 184.144 118.188C176.213 121.245 165.882 123.319 154.491 123.891C137.973 124.721 115.256 122.936 99.5641 120.754C96.2604 120.294 93.0112 119.789 89.8213 119.24V103.009C93.8123 103.733 97.9127 104.385 102.111 104.96C116.949 106.991 138.47 108.676 154.059 107.873C163.627 107.38 172.079 105.719 178.384 103.289C183.707 101.237 186.999 99.2923 186.999 97.9424C186.999 96.5924 183.707 94.6482 178.384 92.5964C158.492 84.9284 124.076 87.6711 102.266 92.6569Z" fill="white"/>
<path d="M89.8205 119.239C93.7732 114.402 92.7953 108.213 89.8205 103.008C72.288 99.7721 52.1797 94.3633 35.5085 85.1099C23.1814 78.098 16.0261 70.1436 16.0261 62.0092C16.0261 50.7455 29.7414 39.8262 51.915 31.2778C76.3574 21.8548 110.341 16.0263 148.072 16.0263V0C108.45 0 72.4039 6.25922 46.1554 16.3783C17.6385 27.3722 0 43.4512 0 62.0092C0 78.1134 13.2864 92.35 35.4354 103.017V103.019C35.4982 103.049 35.5615 103.079 35.6244 103.109L35.9002 103.241C52.6119 111.212 71.6772 116.118 89.8205 119.239Z" fill="white"/>
</svg>
